<svg xmlns="http://www.w3.org/2000/svg" xmlns:xlink="http://www.w3.org/1999/xlink" width="557" height="231" viewBox="0 0 557 231"><defs><filter id="a" x="0" y="9" width="542" height="222" filterUnits="userSpaceOnUse"><feOffset dy="3" input="SourceAlpha"/><feGaussianBlur stdDeviation="3" result="b"/><feFlood flood-opacity="0.161"/><feComposite operator="in" in2="b"/><feComposite in="SourceGraphic"/></filter><filter id="c" x="15" y="0" width="542" height="222" filterUnits="userSpaceOnUse"><feOffset dy="3" input="SourceAlpha"/><feGaussianBlur stdDeviation="3" result="d"/><feFlood flood-opacity="0.161"/><feComposite operator="in" in2="d"/><feComposite in="SourceGraphic"/></filter></defs><g transform="translate(-181 -77)"><g transform="matrix(1, 0, 0, 1, 181, 77)" filter="url(#a)"><path d="M102,0H422a102,102,0,0,1,0,204H102A102,102,0,0,1,102,0Z" transform="translate(9 15)" fill="#338aff"/></g><g transform="matrix(1, 0, 0, 1, 181, 77)" filter="url(#c)"><g transform="translate(24 6)" fill="none"><path d="M102,0H422a102,102,0,0,1,0,204H102A102,102,0,0,1,102,0Z" stroke="none"/><path d="M 102 5 C 95.41543579101562 5 88.83642578125 5.663070678710938 82.44580078125 6.970779418945312 C 76.22015380859375 8.244720458984375 70.096435546875 10.14564514160156 64.24472045898438 12.62071228027344 C 58.49813842773438 15.05128479003906 52.9552001953125 18.05992126464844 47.76986694335938 21.56306457519531 C 42.63241577148438 25.03385925292969 37.80136108398438 29.01992797851562 33.41064453125 33.41064453125 C 29.01992797851562 37.80136108398438 25.03384399414062 42.63243103027344 21.56307983398438 47.76985168457031 C 18.0599365234375 52.95521545410156 15.05130004882812 58.49813842773438 12.6207275390625 64.24472045898438 C 10.1456298828125 70.096435546875 8.24468994140625 76.22014617919922 6.97076416015625 82.44578552246094 C 5.6630859375 88.83642578125 5 95.41542816162109 5 102 C 5 108.5845718383789 5.6630859375 115.16357421875 6.97076416015625 121.5542144775391 C 8.24468994140625 127.7798538208008 10.1456298828125 133.903564453125 12.6207275390625 139.7552795410156 C 15.05130004882812 145.5018615722656 18.0599365234375 151.0447845458984 21.56307983398438 156.2301483154297 C 25.03384399414062 161.3675689697266 29.01992797851562 166.1986389160156 33.41064453125 170.58935546875 C 37.80136108398438 174.9800720214844 42.63241577148438 178.9661407470703 47.76986694335938 182.4369201660156 C 52.9552001953125 185.9400634765625 58.49813842773438 188.9487152099609 64.24472045898438 191.3792877197266 C 70.096435546875 193.8543548583984 76.22015380859375 195.7552795410156 82.44580078125 197.0292205810547 C 88.83642578125 198.3369293212891 95.41543579101562 199 102 199 L 422 199 C 428.5845642089844 199 435.16357421875 198.3369293212891 441.5541381835938 197.0292205810547 C 447.77978515625 195.7552795410156 453.9035034179688 193.8543548583984 459.7552185058594 191.3792877197266 C 465.5017700195312 188.9487152099609 471.0447998046875 185.9400634765625 476.2301330566406 182.4368591308594 C 481.3674926757812 178.9661407470703 486.1986389160156 174.9800720214844 490.58935546875 170.58935546875 C 494.9800109863281 166.1986389160156 498.9661560058594 161.3675689697266 502.4368591308594 156.2301483154297 C 505.9400634765625 151.0447845458984 508.9486999511719 145.5018615722656 511.3792724609375 139.7552795410156 C 513.8543701171875 133.903564453125 515.7553100585938 127.7798538208008 517.0292358398438 121.5542144775391 C 518.3369140625 115.16357421875 519 108.5845718383789 519 102 C 519 95.41542816162109 518.3369140625 88.83642578125 517.0292358398438 82.44578552246094 C 515.7553100585938 76.22014617919922 513.8543701171875 70.096435546875 511.3792724609375 64.24472045898438 C 508.9486999511719 58.49813842773438 505.9400634765625 52.95521545410156 502.4368591308594 47.76985168457031 C 498.9661560058594 42.63243103027344 494.9800109863281 37.80136108398438 490.58935546875 33.41064453125 C 486.1986389160156 29.01992797851562 481.3674926757812 25.03385925292969 476.2301330566406 21.56314086914062 C 471.0447998046875 18.05992126464844 465.5017700195312 15.05128479003906 459.7552185058594 12.62071228027344 C 453.9035034179688 10.14564514160156 447.77978515625 8.244720458984375 441.5541381835938 6.970779418945312 C 435.16357421875 5.663070678710938 428.5845642089844 5 422 5 L 102 5 M 102 0 L 422 0 C 478.3330078125 0 524 45.66693115234375 524 102 C 524 158.3330688476562 478.3330078125 204 422 204 L 102 204 C 45.66693115234375 204 0 158.3330688476562 0 102 C 0 45.66693115234375 45.66693115234375 0 102 0 Z" stroke="none"/></g></g><text transform="translate(277 243)" fill="#fff" font-size="140" font-family="OpenSansCondensed-Bold, Open Sans Condensed" font-weight="700"><tspan x="0" y="0">PillPro</tspan></text></g></svg>